<?xml version="1.0" encoding="UTF-8"?>
<svg width="626px" height="619px" viewBox="0 0 626 619" version="1.1" xmlns="http://www.w3.org/2000/svg" xmlns:xlink="http://www.w3.org/1999/xlink">
    <!-- Generator: Sketch 51.1 (57501) - http://www.bohemiancoding.com/sketch -->
    <title>Combined Shape Copy 2</title>
    <desc>Created with Sketch.</desc>
    <defs>
        <linearGradient x1="50%" y1="0%" x2="50%" y2="96.9585441%" id="linearGradient-1">
            <stop stop-color="#00FF6A" offset="0%"></stop>
            <stop stop-color="#0E2417" offset="97.6268967%"></stop>
        </linearGradient>
        <path d="M338,561 C181.703416,561 55,435.863588 55,281.5 C55,127.136412 181.703416,2 338,2 C494.296584,2 621,127.136412 621,281.5 C621,435.863588 494.296584,561 338,561 Z M335.5,504 C460.592496,504 562,403.935642 562,280.5 C562,157.064358 460.592496,57 335.5,57 C210.407504,57 109,157.064358 109,280.5 C109,403.935642 210.407504,504 335.5,504 Z" id="path-2"></path>
        <filter x="-8.0%" y="-8.1%" width="115.9%" height="116.1%" filterUnits="objectBoundingBox" id="filter-3">
            <feOffset dx="0" dy="0" in="SourceAlpha" result="shadowOffsetOuter1"></feOffset>
            <feGaussianBlur stdDeviation="15" in="shadowOffsetOuter1" result="shadowBlurOuter1"></feGaussianBlur>
            <feComposite in="shadowBlurOuter1" in2="SourceAlpha" operator="out" result="shadowBlurOuter1"></feComposite>
            <feColorMatrix values="0 0 0 0 0   0 0 0 0 0   0 0 0 0 0  0 0 0 0.4 0" type="matrix" in="shadowBlurOuter1"></feColorMatrix>
        </filter>
    </defs>
    <g id="strona-desktop" stroke="none" stroke-width="1" fill="none" fill-rule="evenodd">
        <g id="v-copy-2" transform="translate(-737.000000, -93.000000)">
            <g id="Group-7" transform="translate(712.000000, 121.000000)">
                <g id="Combined-Shape-Copy-2">
                    <use fill="black" fill-opacity="1" filter="url(#filter-3)" xlink:href="#path-2"></use>
                    <use fill-opacity="0.95" fill="url(#linearGradient-1)" fill-rule="evenodd" xlink:href="#path-2"></use>
                </g>
            </g>
        </g>
    </g>
</svg>