<svg class="persi-logo" data-name="Layer 1" xmlns="http://www.w3.org/2000/svg" viewBox="0 0 227.05 70.65">
  <defs>
    <style>
      .cls-1 {
        fill: #fff;
      }

      .cls-2 {
        fill: #999;
      }
    </style>
  </defs>
  <title>persi logo svg</title>
  <g>
    <path class="cls-1" d="M206.92,209.3h39.81q11.49,0,11.49,7.79V233q0,7.78-11.49,7.78H224.61v-2.48q0-7.77,11.5-7.78H245c.59,0,.88-.35.88-1.06v-8.85c0-.7-.29-1.06-.88-1.06H219.31v55.09q-12.39,0-12.39-7.79Z" transform="translate(-206.92 -204)"/>
    <path class="cls-1" d="M273,253.53h38.91V256q0,7.78-11.49,7.79H272.11q-11.49,0-11.5-7.79V217.09q0-7.78,11.5-7.79h28.31q11.49,0,11.49,7.79v2.47H273v11h35.38V233q0,7.78-11.5,7.78H273Z" transform="translate(-206.92 -204)"/>
    <path class="cls-1" d="M352.34,230.53c.59,0,.88-.35.88-1.06v-8.85c0-.7-.29-1.06-.88-1.06H326.69V256q0,7.78-12.39,7.79V209.3h39.81q11.49,0,11.49,7.79V233q0,7.78-11.49,7.78h-2.69l16.59,23h-14.4l-24-33.26Z" transform="translate(-206.92 -204)"/>
    <path class="cls-1" d="M421.59,209.3H434v57.53q0,7.79-12.38,7.78Z" transform="translate(-206.92 -204)"/>
  </g>
  <g>
    <path class="cls-2" d="M216.53,271.75v-36.3H209.7v31.41C209.7,268.08,209.7,271.11,216.53,271.75Z" transform="translate(-206.92 -204)"/>
    <path class="cls-2" d="M227.39,238h19.34c5.18,0,7.28-1.24,8.13-2.56H228.29A3.83,3.83,0,0,0,227.39,238Z" transform="translate(-206.92 -204)"/>
    <path class="cls-2" d="M272.11,261h28.31c8.17,0,8.68-3.09,8.71-4.7H270.22V238h26.66c5.18,0,7.28-1.24,8.13-2.56H263.39V256C263.39,257.5,263.39,261,272.11,261Z" transform="translate(-206.92 -204)"/>
    <path class="cls-2" d="M355,261h7.55L346,238h8.12c5.18,0,7.28-1.24,8.13-2.56H336.57Z" transform="translate(-206.92 -204)"/>
    <path class="cls-2" d="M323.91,256V235.45h-6.83v25.44C323.91,260.25,323.91,257.23,323.91,256Z" transform="translate(-206.92 -204)"/>
    <path class="cls-2" d="M431.2,266.83V235.45h-6.83v36.26C431.2,271.08,431.2,268.05,431.2,266.83Z" transform="translate(-206.92 -204)"/>
  </g>
  <path class="cls-1" d="M400.14,230.53v-11h19.15v-2.47q0-7.78-11.49-7.79h-7.66V204q-10.22,0-12,5.3h-8.65q-11.49,0-11.5,7.79V233q0,7.78,11.5,7.78h5.87V230.53h-4.1c-.59,0-.88-.35-.88-1.06v-8.85c0-.7.29-1.06.88-1.06h6.5v34H368V256q0,7.78,11.5,7.79h8.27v5.52q10.42,0,12.07-5.52h8q11.49,0,11.49-11.32V238.31q0-7.77-11.49-7.78h-5.27v10.26H406c.59,0,.88.35.88,1.06v10.62c0,.7-.29,1.06-.88,1.06h-5.89v-23Z" transform="translate(-206.92 -204)"/>
  <g>
    <path class="cls-2" d="M405.31,238H406a3.63,3.63,0,0,1,3.66,3.84v10.62a3.63,3.63,0,0,1-3.66,3.84h-8.67V235.45h-6.83v20.86H370.77c0,1.61.54,4.7,8.72,4.7h11v5.4a13.46,13.46,0,0,0,4.3-1,3.77,3.77,0,0,0,2.34-2.41l.59-2h10c6.11,0,8.72-2.56,8.72-8.54V238.29a2.85,2.85,0,0,0-2.85-2.84h-8.36Z" transform="translate(-206.92 -204)"/>
    <path class="cls-2" d="M379.49,238h3.09v-2.56H371.35C372.21,236.77,374.31,238,379.49,238Z" transform="translate(-206.92 -204)"/>
  </g>
</svg>
